HIERARCHY
ROOT SpineBase
{
  OFFSET 0.000000 0.000000 0.000000
  CHANNELS 6 Xposition Yposition Zposition Zrotation Xrotation Yrotation
  JOINT SpineMid
  {
    OFFSET -0.000000 30.123601 -0.000000
    CHANNELS 3 Zrotation Xrotation Yrotation
    JOINT SpineShoulder
    {
      OFFSET 0.038548 22.404018 -0.726695
      CHANNELS 3 Zrotation Xrotation Yrotation
      JOINT Neck
      {
        OFFSET -0.004570 7.414898 -0.542172
        CHANNELS 3 Zrotation Xrotation Yrotation
        JOINT Head
        {
          OFFSET -0.211582 15.601230 -0.556853
          CHANNELS 3 Zrotation Xrotation Yrotation
          End Site
          {
            OFFSET 0 0 0
          }
        }
      }
      JOINT ShoulderLeft
      {
        OFFSET -18.340127 -2.671255 1.483145
        CHANNELS 3 Zrotation Xrotation Yrotation
        JOINT ElbowLeft
        {
          OFFSET -3.064469 -24.766772 -1.343962
          CHANNELS 3 Zrotation Xrotation Yrotation
          JOINT WristLeft
          {
            OFFSET 0.240389 -20.443415 -8.460906
            CHANNELS 3 Zrotation Xrotation Yrotation
            JOINT HandLeft
            {
              OFFSET 1.841160 -5.341451 -1.748882
              CHANNELS 3 Zrotation Xrotation Yrotation
              JOINT HandTipLeft
              {
                OFFSET 0.844266 -8.758452 -1.213114
                CHANNELS 3 Zrotation Xrotation Yrotation
                End Site
                {
                  OFFSET 0 0 0
                }
              }
              JOINT ThumbLeft
              {
                OFFSET -3.756479 -0.880100 -2.813435
                CHANNELS 3 Zrotation Xrotation Yrotation
                End Site
                {
                  OFFSET 0 0 0
                }
              }
            }
          }
        }
      }
      JOINT ShoulderRight
      {
        OFFSET 17.217235 -3.465802 -1.791793
        CHANNELS 3 Zrotation Xrotation Yrotation
        JOINT ElbowRight
        {
          OFFSET 4.001586 -25.166057 0.309122
          CHANNELS 3 Zrotation Xrotation Yrotation
          JOINT WristRight
          {
            OFFSET -3.900866 -20.721515 -6.319480
            CHANNELS 3 Zrotation Xrotation Yrotation
            JOINT HandRight
            {
              OFFSET -2.162980 -4.540425 -1.626298
              CHANNELS 3 Zrotation Xrotation Yrotation
              JOINT HandTipRight
              {
                OFFSET -0.881246 -8.158083 -0.979037
                CHANNELS 3 Zrotation Xrotation Yrotation
                End Site
                {
                  OFFSET 0 0 0
                }
              }
              JOINT ThumbRight
              {
                OFFSET 1.697576 -1.551943 -5.111656
                CHANNELS 3 Zrotation Xrotation Yrotation
                End Site
                {
                  OFFSET 0 0 0
                }
              }
            }
          }
        }
      }
    }
  }
  JOINT HipLeft
  {
    OFFSET -8.460757 0.911155 -2.851750
    CHANNELS 3 Zrotation Xrotation Yrotation
    JOINT KneeLeft
    {
      OFFSET -6.314439 -27.196312 -5.897968
      CHANNELS 3 Zrotation Xrotation Yrotation
      JOINT AnkleLeft
      {
        OFFSET -2.413413 -36.373320 1.108044
        CHANNELS 3 Zrotation Xrotation Yrotation
        JOINT FootLeft
        {
          OFFSET -0.628951 -6.930276 -7.562157
          CHANNELS 3 Zrotation Xrotation Yrotation
          End Site
          {
            OFFSET 0 0 0
          }
        }
      }
    }
  }
  JOINT HipRight
  {
    OFFSET 7.704348 0.430473 -4.360399
    CHANNELS 3 Zrotation Xrotation Yrotation
    JOINT KneeRight
    {
      OFFSET 2.774732 -28.243898 0.114211
      CHANNELS 3 Zrotation Xrotation Yrotation
      JOINT AnkleRight
      {
        OFFSET -0.858995 -36.681995 10.577486
        CHANNELS 3 Zrotation Xrotation Yrotation
        JOINT FootRight
        {
          OFFSET 0.217357 -6.871962 -4.864307
          CHANNELS 3 Zrotation Xrotation Yrotation
          End Site
          {
            OFFSET 0 0 0
          }
        }
      }
    }
  }
}
MOTION
Frames: 14
Frame Time: 0.033333
42.399578 72.469632 401.030442 0.000000 -0.000000 5.331827 -0.000000 0.000000 -5.331827 -0.000000 0.000000 0.000000 -0.000000 0.000000 0.000000 0.000000 0.000000 0.000000 -0.000000 0.000000 0.000000 -0.000000 0.000000 0.000000 -0.000000 0.000000 0.000000 -0.000000 0.000000 0.000000 0.000000 0.000000 0.000000 0.000000 0.000000 0.000000 -0.000000 0.000000 0.000000 -0.000000 0.000000 0.000000 -0.000000 0.000000 0.000000 -0.000000 0.000000 0.000000 0.000000 0.000000 0.000000 0.000000 0.000000 0.000000 -0.000000 0.000000 -5.331827 -0.000000 0.000000 0.000000 -0.000000 0.000000 0.000000 0.000000 0.000000 0.000000 -0.000000 0.000000 -5.331827 -0.000000 0.000000 0.000000 -0.000000 0.000000 0.000000 0.000000 0.000000 0.000000
42.480829 72.465570 400.951995 -0.063808 0.089592 5.192197 0.055439 -0.094999 -5.192102 -0.000000 0.000000 0.000000 -0.000000 0.000000 0.000000 0.000000 0.000000 0.000000 -0.000000 0.000000 0.000000 -0.000000 0.000000 0.000000 -0.044284 -1.088971 -0.362469 0.240087 1.973017 0.412446 0.000000 0.000000 0.000000 0.000000 0.000000 0.000000 -0.000000 0.000000 0.000000 1.433539 0.035068 -0.445257 -1.978161 -2.322826 1.723162 -1.340970 3.024029 -1.054287 0.000000 0.000000 0.000000 0.000000 0.000000 0.000000 0.055439 -0.094999 -5.192102 -0.000000 0.000000 0.000000 -0.000000 0.000000 0.000000 0.000000 0.000000 0.000000 0.055439 -0.094999 -5.192102 -0.000000 0.000000 0.000000 -0.000000 0.000000 0.000000 0.000000 0.000000 0.000000
42.565033 72.462498 400.871134 -0.112611 0.164724 5.048439 0.097679 -0.173995 -5.048128 -0.000000 0.000000 0.000000 -0.000000 0.000000 0.000000 0.000000 0.000000 0.000000 -0.000000 0.000000 0.000000 0.099474 1.006873 -0.030094 -0.049361 -2.915244 -0.647307 0.264476 3.494746 0.766086 0.000000 0.000000 0.000000 0.000000 0.000000 0.000000 -0.000000 0.000000 0.000000 2.570123 0.087132 -0.805506 -3.539239 -4.041056 3.010510 -2.337068 5.280311 -1.718250 0.000000 0.000000 0.000000 0.000000 0.000000 0.000000 0.097679 -0.173995 -5.048128 -0.000000 0.000000 0.000000 -0.000000 0.000000 0.000000 0.000000 0.000000 0.000000 0.097679 -0.173995 -5.048128 -0.000000 0.000000 0.000000 0.168228 0.963519 -0.089481 0.000000 0.000000 0.000000
42.652188 72.460416 400.787859 -0.146454 0.225455 4.900368 0.126661 -0.237141 -4.899818 -0.000000 0.000000 0.000000 -0.000000 0.000000 0.000000 0.000000 0.000000 0.000000 -0.000000 0.000000 0.000000 0.151579 1.341916 -0.048493 0.134942 -3.792973 -0.885738 0.078056 4.546918 1.067069 0.000000 0.000000 0.000000 0.000000 0.000000 0.000000 -0.233989 0.845154 0.133295 3.650001 -0.690685 -1.162467 -4.758170 -5.320094 3.966318 -3.027807 6.930784 -2.154649 0.000000 0.000000 0.000000 0.000000 0.000000 0.000000 0.126661 -0.237141 -4.899818 -0.000000 0.000000 0.000000 -0.000000 0.000000 0.000000 0.000000 0.000000 0.000000 -0.671583 -0.084163 -4.897048 0.808385 -0.084288 -0.004414 0.206862 1.349215 -0.105302 0.000000 0.000000 0.000000
42.742296 72.459323 400.702170 -0.165371 0.271829 4.747837 0.142306 -0.284583 -4.747092 -0.000000 0.000000 0.000000 -0.000000 0.000000 0.000000 0.000000 0.000000 0.000000 -0.000000 0.000000 0.000000 0.204831 1.562370 -0.068804 0.462436 -4.275374 -1.061491 -0.313770 5.116459 1.317296 0.000000 0.000000 0.000000 0.000000 0.000000 0.000000 -0.163296 1.090722 0.173046 4.142773 -0.839135 -1.374232 -5.680642 -6.264259 4.655220 -3.431862 8.082503 -2.461737 0.000000 0.000000 0.000000 0.000000 0.000000 0.000000 0.142306 -0.284583 -4.747092 -0.436871 -0.690681 0.029873 0.437263 0.690433 -0.035141 0.000000 0.000000 0.000000 -0.891245 -0.120963 -4.747354 1.043538 -0.077545 -0.002690 0.215480 1.673213 -0.101690 0.000000 0.000000 0.000000
42.835356 72.459220 400.614068 -0.169381 0.303879 4.590727 0.144518 -0.316460 -4.589879 -0.000000 0.000000 0.000000 -0.000000 0.000000 0.000000 0.000000 0.000000 0.000000 -0.000000 0.000000 0.000000 0.258877 1.668105 -0.090745 0.932575 -4.361002 -1.175795 -0.904928 5.195157 1.514435 0.000000 0.000000 0.000000 0.000000 0.000000 0.000000 -0.015340 1.314466 0.209040 4.279707 -0.936476 -1.508544 -6.335986 -6.940093 5.118864 -3.555624 8.805225 -2.700197 0.000000 0.000000 0.000000 0.000000 0.000000 0.000000 0.144518 -0.316460 -4.589879 -0.531535 -0.845488 0.035967 0.532124 0.845118 -0.043813 0.000000 0.000000 0.000000 -1.109611 -0.161839 -4.594943 1.342911 -0.894580 0.043880 0.115944 2.777641 -0.123642 0.000000 0.000000 0.000000
42.924682 72.460832 400.537662 -0.151853 0.313573 4.409709 0.127295 -0.324319 -4.408933 -0.000000 0.000000 0.000000 -0.000000 0.000000 0.000000 0.000000 0.000000 0.000000 -0.000000 0.000000 0.000000 0.143497 1.496627 -0.043429 1.479694 -4.538349 -1.459491 -1.628654 5.524461 1.846484 0.000000 0.000000 0.000000 0.000000 0.000000 0.000000 -0.045556 1.394716 0.221823 5.074961 -0.805871 -1.784361 -7.437506 -8.174380 5.940084 -2.613635 8.949095 -3.334375 0.000000 0.000000 0.000000 0.000000 0.000000 0.000000 0.127295 -0.324319 -4.408933 -0.614160 -0.974331 0.040693 0.614940 0.973839 -0.051141 0.000000 0.000000 0.000000 -1.387719 -0.235050 -4.425185 1.638248 -0.902802 0.065887 0.041282 3.260790 -0.099436 0.000000 0.000000 0.000000
43.008357 72.458521 400.462604 -0.137096 0.295290 4.280417 0.114675 -0.304698 -4.279759 -0.000000 0.000000 0.000000 -0.000000 0.000000 0.000000 0.000000 0.000000 0.000000 -0.000000 0.000000 0.000000 -0.156007 0.838553 0.075342 2.596008 -1.888444 -1.170527 -3.235323 2.493067 1.448648 0.000000 0.000000 0.000000 0.000000 0.000000 0.000000 0.172566 1.560778 0.247941 4.898461 -1.043898 -1.797760 -6.668305 -7.939493 5.658686 -4.503814 9.112885 -2.679809 0.000000 0.000000 0.000000 0.000000 0.000000 0.000000 0.114675 -0.304698 -4.279759 -0.693400 -1.121956 0.046500 0.694444 1.121311 -0.060085 0.000000 0.000000 0.000000 -1.608985 -0.277652 -4.305505 1.864628 -0.871573 0.080458 -0.054820 3.386522 -0.050175 0.000000 0.000000 0.000000
43.121980 72.462019 400.359405 -0.075381 0.300019 4.118235 0.053641 -0.304658 -4.117895 -0.000000 0.000000 0.000000 -0.980553 0.054570 -0.033797 0.000000 0.000000 0.000000 -0.657242 -0.508445 0.095616 0.553713 1.642557 -0.042346 1.305422 -0.236516 -0.123809 -2.372835 -0.752418 0.232992 0.000000 0.000000 0.000000 0.000000 0.000000 0.000000 0.662431 1.755969 0.277016 3.839643 -1.677636 -1.565538 -6.766639 -6.035537 4.913769 -4.620629 7.411462 -2.199285 0.000000 0.000000 0.000000 0.000000 0.000000 0.000000 0.053641 -0.304658 -4.117895 -0.779026 -1.271535 0.051954 0.780370 1.270710 -0.069252 0.000000 0.000000 0.000000 -1.822711 -0.306676 -4.148959 1.973377 -0.860740 0.072045 -0.158619 3.308026 0.064203 0.000000 0.000000 0.000000
43.235435 72.472447 400.228179 -0.009634 0.312959 3.929595 -0.011836 -0.312883 -3.929601 -0.000000 0.000000 0.000000 -1.230574 0.253265 -0.037778 0.000000 0.000000 0.000000 -0.870838 -0.307835 0.082941 0.366439 1.317603 0.140178 4.871221 2.948726 -0.342319 -5.187091 -3.202071 0.038679 0.000000 0.000000 0.000000 0.000000 0.000000 0.000000 1.467134 1.892055 0.294132 1.754850 -1.425902 -1.327901 -8.424129 -4.771911 4.654360 -0.359107 6.181617 -2.999445 0.000000 0.000000 0.000000 0.000000 0.000000 0.000000 -0.011836 -0.312883 -3.929601 -0.863158 -1.411562 0.056686 0.864817 1.410547 -0.077965 0.000000 0.000000 0.000000 -1.936873 -0.360606 -3.966369 1.915055 -0.827465 0.045259 -0.138109 3.095467 0.146365 0.000000 0.000000 0.000000
43.348440 72.479992 400.083771 0.034471 0.304160 3.718304 -0.054124 -0.301285 -3.718537 -0.000000 0.000000 0.000000 -1.482341 0.403210 -0.042240 0.000000 0.000000 0.000000 -1.472076 0.186470 0.059110 2.256304 1.139123 -0.367809 7.345179 -2.848994 -2.544731 -8.475666 0.190121 3.183101 0.000000 0.000000 0.000000 0.000000 0.000000 0.000000 2.574118 1.969961 0.299621 -2.819845 0.183493 -0.716067 -8.781628 -6.721087 4.927514 6.896619 6.831719 -5.347098 0.000000 0.000000 0.000000 0.000000 0.000000 0.000000 -0.054124 -0.301285 -3.718537 -0.933186 -1.530556 0.060609 0.935137 1.529364 -0.085556 0.000000 0.000000 0.000000 -1.997797 -0.419782 -3.762656 1.797672 -0.847522 0.013874 -0.032607 2.925155 0.191507 0.000000 0.000000 0.000000
43.445221 72.482852 399.935358 0.050417 0.263683 3.529772 -0.066557 -0.260078 -3.530039 -0.000000 0.000000 0.000000 -1.815299 0.505734 -0.049946 0.000000 0.000000 0.000000 -2.518279 1.157724 0.018808 6.148773 1.116058 -1.431084 8.477704 -8.861708 -3.578542 -10.222539 5.350929 6.197264 0.000000 0.000000 0.000000 0.000000 0.000000 0.000000 3.893662 2.037078 0.300977 -8.449247 2.934193 0.061184 -11.724447 -8.997328 5.230196 10.882362 9.427075 -7.149674 0.000000 0.000000 0.000000 0.000000 0.000000 0.000000 -0.066557 -0.260078 -3.530039 -1.010415 -1.628758 0.062869 1.012610 1.627394 -0.091614 0.000000 0.000000 0.000000 -1.969659 -0.463227 -3.581198 1.606385 -0.851604 -0.020852 0.140312 2.732556 0.201018 0.000000 0.000000 0.000000
43.545219 72.483538 399.801055 0.036601 0.192124 3.378296 -0.047859 -0.189633 -3.378437 -0.000000 0.000000 0.000000 -2.184504 0.207775 -0.071224 0.000000 0.000000 0.000000 -3.876035 2.443627 -0.009242 12.527752 1.779509 -3.263784 7.813396 -12.786705 -2.489762 -11.984893 7.318545 7.889490 0.000000 0.000000 0.000000 0.000000 0.000000 0.000000 5.447667 2.377803 0.329556 -16.690835 6.745020 1.566569 -12.487744 -11.157768 4.022564 15.075194 10.801700 -8.097965 0.000000 0.000000 0.000000 0.000000 0.000000 0.000000 -0.047859 -0.189633 -3.378437 -1.098786 -1.769551 0.066904 1.101376 1.767940 -0.100868 0.000000 0.000000 0.000000 -1.936325 -0.470259 -3.435416 1.435447 -0.853415 -0.057619 0.342768 2.521325 0.194782 0.000000 0.000000 0.000000
43.629038 72.476783 399.701191 0.008317 0.112209 3.098774 -0.014371 -0.111596 -3.098796 -0.000000 0.000000 0.000000 -2.647350 -0.374897 -0.108277 0.000000 0.000000 0.000000 -5.362801 3.539298 0.018826 20.490815 3.921805 -5.799088 7.887118 -16.794838 -0.237201 -11.991248 9.945241 8.698108 0.000000 0.000000 0.000000 0.000000 0.000000 0.000000 6.686138 3.166807 0.397305 -25.487730 10.251402 3.519472 -13.028617 -11.099493 1.965972 17.506507 11.571800 -7.405995 0.000000 0.000000 0.000000 0.000000 0.000000 0.000000 -0.014371 -0.111596 -3.098796 -1.196198 -1.968815 0.073561 0.905741 -1.554098 0.540802 0.000000 0.000000 0.000000 -1.890245 -0.414713 -3.154708 1.360940 -0.857958 -0.074407 0.269639 2.231663 0.301436 0.000000 0.000000 0.000000
